<!-- This Source Code Form is subject to the terms of the Mozilla Public
   - License, v. 2.0. If a copy of the MPL was not distributed with this
   - file, You can obtain one at http://mozilla.org/MPL/2.0/. -->
<svg width="199" height="87" viewBox="0 0 199 87" fill="none" xmlns="http://www.w3.org/2000/svg">
<path d="M95.2207 63.1833C99.6888 63.1835 102.466 66.7431 102.466 72.9402C102.466 79.1372 99.722 82.7026 95.2207 82.7029C92.582 82.7029 90.8571 81.5032 89.9424 79.0378H88.9561C89.1999 81.2587 89.3047 82.3862 89.3047 83.4079V87.0007H85.7178V63.5388H88.7842V67.0593H89.7324C90.7192 64.4495 92.5098 63.1833 95.2207 63.1833ZM136.793 63.1941C141.683 63.1941 143.967 65.0602 144.671 69.3972H141.084V69.2195C141.084 67.598 140.064 66.0154 136.793 66.0154C134.226 66.0154 132.746 66.9318 132.746 68.6199C132.746 69.9248 133.522 70.5247 135.629 71.0134L139.465 71.8572C143.09 72.7012 144.704 74.1838 144.704 76.9324C144.704 80.5974 141.888 82.7136 136.898 82.7136C131.909 82.7136 129.653 80.8474 128.949 76.5105L128.954 76.5056L132.574 76.4714V76.6833C132.574 78.3046 133.595 79.8532 136.898 79.8532C139.537 79.8532 141.084 78.9376 141.084 77.2497C141.084 75.9836 140.274 75.3837 138.129 74.8562L134.26 74.0115C130.673 73.2007 129.126 71.685 129.126 68.9363C129.126 65.2713 131.903 63.1941 136.793 63.1941ZM59.6953 63.1892C65.1448 63.1892 67.9951 66.3596 67.9951 72.2458V73.5505H54.9111V73.9734C54.9112 77.9878 56.3916 79.7867 59.6953 79.7868C62.9994 79.7868 64.0195 77.9541 64.0195 76.6491V76.4714H67.6787C66.8361 80.5585 64.0527 82.7077 59.6953 82.7077C54.2461 82.7076 51.1144 79.2539 51.1143 72.946C51.1143 66.6378 54.246 63.1893 59.6953 63.1892ZM155.726 63.1892C161.175 63.1893 164.024 66.3597 164.024 72.2458V73.5505H150.94V73.9734C150.941 77.988 152.422 79.7868 155.726 79.7868C159.029 79.7867 160.05 77.9541 160.05 76.6491V76.4714H163.708C162.865 80.5584 160.083 82.7076 155.726 82.7077C150.276 82.7077 147.144 79.2541 147.144 72.946C147.144 66.6377 150.276 63.1892 155.726 63.1892ZM44.0781 63.5447H49.04V66.2546H44.0781V79.6423H49.04V82.3581H42.8477C41.301 82.3581 40.4922 81.5138 40.4922 79.9646V66.2546H36.8662V63.5447H40.4922V59.3513H44.0781V63.5447ZM125.861 82.3581H122.274V66.2536H119.602V63.5447H125.861V82.3581ZM16.0439 61.1062H3.69727V68.4695H13.3711V71.3962H3.69727V79.2868H16.1826V82.3523H0V58.0407H16.0439V61.1062ZM28.7773 63.1833C32.6802 63.1833 34.7207 65.5435 34.7207 70.0915V82.3523H31.1338V70.7966C31.1338 67.5204 29.9032 66.077 27.1592 66.0769C24.415 66.0769 23.1504 67.5203 23.1504 70.7966V82.3523H19.5635V63.5388H22.624V66.8484H23.5723C24.4537 64.3496 26.1055 63.1834 28.7773 63.1833ZM82.9795 66.2488H78.6553C75.878 66.2488 74.6475 67.6924 74.6475 70.9353V82.3523H71.0605V63.5388H74.1211V66.9538H75.0684C75.9498 64.455 77.4579 63.322 80.0967 63.322H82.9795V66.2488ZM117.24 66.2488H112.916C110.139 66.2488 108.908 67.6923 108.908 70.9353V82.3523H105.321V63.5388H108.381V66.9538H109.329C110.211 64.4549 111.719 63.322 114.357 63.322H117.24V66.2488ZM93.9893 66.071C90.752 66.0711 89.3107 67.8701 89.3105 71.8845V74.0007C89.3105 77.9822 90.7907 79.7818 93.9893 79.782C97.188 79.782 98.6689 77.9823 98.6689 74.0007V71.8845C98.6688 67.8699 97.2267 66.071 93.9893 66.071ZM59.6953 66.0095C56.5966 66.0096 55.0885 67.5927 54.9111 71.1521H64.4463C64.2689 67.5925 62.7943 66.0095 59.6953 66.0095ZM155.72 66.0095C152.621 66.0095 151.113 67.5925 150.936 71.1521H160.471C160.293 67.5926 158.819 66.0095 155.72 66.0095ZM126.038 61.3894H121.958V58.0407H126.038V61.3894Z" fill="url(#paint0_linear_1306_5095)"/>
<path d="M0.0163574 0.00555853H29.3375V6.64151H8.63697V19.5636H24.531V26.1995H8.63697V43.5863H0.0163574V0V0.00555853ZM35.4967 12.2279H43.8845V43.5974H35.4967V12.2279ZM51.5072 12.2279H59.1909V17.8699H60.0724C60.8152 15.8319 61.8907 14.327 63.2989 13.3441C64.7458 12.3279 66.5808 11.817 68.8094 11.817H73.6769V18.2197H65.3501C63.4763 18.2197 62.0848 18.7473 61.1867 19.8079C60.2886 20.863 59.8395 22.6289 59.8395 25.0945V43.5974H51.5127V12.2279H51.5072ZM35.1474 0.00555853H44.2393V6.64151H35.1474V0.00555853ZM90.9735 44.1805C86.0839 44.1805 82.2753 42.77 79.5366 39.949C76.8368 37.0892 75.4897 33.0743 75.4897 27.9044C75.4897 22.7344 76.8368 18.7417 79.5366 15.9208C82.2753 13.0609 86.0839 11.6338 90.9735 11.6338C95.8631 11.6338 99.4389 12.9443 102.056 15.5709C104.678 18.1975 105.986 21.9125 105.986 26.7326V29.5536H84.2877V30.1978C84.2877 33.0576 84.8144 35.1734 85.8732 36.5394C86.9654 37.8722 88.6673 38.5385 90.9735 38.5385C92.8473 38.5385 94.2554 38.1665 95.1979 37.4224C96.1736 36.6394 96.6615 35.8175 96.6615 34.9568V34.7236H105.221C104.323 37.7778 102.643 40.1267 100.176 41.7705C97.7536 43.3753 94.6823 44.1805 90.968 44.1805H90.9735ZM97.6593 24.2671C97.5041 21.8015 96.8777 19.9967 95.7855 18.8639C94.7322 17.6866 93.1245 17.1036 90.9791 17.1036C88.8336 17.1036 87.2037 17.6922 86.1116 18.8639C85.0583 20.0023 84.4485 21.8015 84.2932 24.2671H97.6649H97.6593ZM114.08 17.7477H108.741V12.2279H114.08V5.05887C114.08 3.45402 114.512 2.22125 115.372 1.36052C116.27 0.460915 117.562 0.0111001 119.241 0.0111001H131.909V5.53089H122.468V12.2279H131.909V17.7477H122.468V43.5919H114.08V17.7477ZM149.499 44.1805C144.571 44.1805 140.724 42.77 137.946 39.949C135.169 37.0892 133.783 33.0743 133.783 27.9044C133.783 22.7344 135.169 18.7417 137.946 15.9208C140.724 13.0609 144.571 11.6338 149.499 11.6338C154.428 11.6338 158.259 13.0609 160.992 15.9208C163.769 18.7417 165.155 22.7344 165.155 27.9044C165.155 33.0743 163.769 37.0892 160.992 39.949C158.253 42.77 154.422 44.1805 149.499 44.1805ZM149.499 38.5441C151.844 38.5441 153.563 37.8777 154.661 36.545C155.797 35.1734 156.363 33.0576 156.363 30.2033V25.622C156.363 22.7622 155.797 20.6687 154.661 19.3359C153.569 17.9643 151.844 17.2813 149.499 17.2813C147.154 17.2813 145.414 17.9643 144.283 19.3359C143.146 20.6687 142.581 22.7622 142.581 25.622V30.2033C142.581 33.0632 143.146 35.1789 144.283 36.545C145.419 37.8777 147.154 38.5441 149.499 38.5441ZM176.592 27.4435L166.508 12.2279H175.189L182.285 23.3897H182.929L190.025 12.2279H198.468L188.384 27.4435L199 43.5974H190.435L182.751 31.4972H182.108L174.424 43.5974H165.981L176.598 27.4435H176.592Z" fill="white"/>
<defs>
<linearGradient id="paint0_linear_1306_5095" x1="0.0109326" y1="72.4076" x2="164.204" y2="72.4076" gradientUnits="userSpaceOnUse">
<stop stop-color="#FF9137"/>
<stop offset="1" stop-color="#FFED4A"/>
</linearGradient>
</defs>
</svg>
