<!-- This Source Code Form is subject to the terms of the Mozilla Public
   - License, v. 2.0. If a copy of the MPL was not distributed with this
   - file, You can obtain one at https://mozilla.org/MPL/2.0/. -->
<svg width="287" height="350" viewBox="0 0 287 350" fill="none" xmlns="http://www.w3.org/2000/svg">
  <path d="M144.57 120.85C144.636 120.852 144.701 120.857 144.57 120.85V120.85ZM96.5831 97.633C96.6486 97.6355 96.7141 97.6395 96.5831 97.633V97.633ZM383.664 133.481C375.004 113.321 357.462 91.5554 343.689 84.677C354.9 105.941 361.388 127.281 363.867 143.202C363.867 143.234 363.879 143.312 363.906 143.523C341.373 89.173 303.166 67.2546 271.963 19.538C270.387 17.1243 268.808 14.7057 267.269 12.1556C266.485 10.8534 265.753 9.52253 265.075 8.1659C263.782 5.74511 262.784 3.18686 262.102 0.542796C262.107 0.417478 262.064 0.294907 261.98 0.199249C261.896 0.103591 261.778 0.0417899 261.65 0.0260302C261.528 -0.00867672 261.398 -0.00867672 261.276 0.0260302C261.248 0.0348569 261.206 0.0669542 261.177 0.0781882C261.133 0.0942369 261.078 0.133556 261.031 0.154419C261.053 0.125532 261.1 0.0605347 261.114 0.046091C216.806 25.1622 198.44 69.1299 193.718 97.1163C180.028 97.8689 166.618 101.181 154.229 106.868C153.102 107.408 152.222 108.332 151.756 109.462C151.291 110.592 151.273 111.849 151.708 112.991C151.935 113.627 152.297 114.211 152.771 114.704C153.245 115.198 153.82 115.59 154.459 115.856C155.098 116.123 155.788 116.257 156.484 116.25C157.18 116.244 157.866 116.097 158.5 115.819C169.309 110.884 180.973 107.938 192.895 107.132C193.283 107.106 193.672 107.082 194.06 107.052C195.698 106.956 197.338 106.899 198.979 106.883C208.653 106.817 218.286 108.109 227.577 110.716C228.12 110.87 228.651 111.048 229.191 111.21C230.734 111.667 232.266 112.16 233.784 112.688C234.895 113.088 235.998 113.506 237.094 113.943C237.984 114.292 238.875 114.64 239.752 115.011C241.121 115.598 242.476 116.216 243.815 116.863C244.431 117.158 245.046 117.452 245.653 117.759C246.961 118.423 248.254 119.115 249.53 119.835C250.353 120.297 251.169 120.772 251.977 121.26C266.412 129.902 278.39 141.893 286.826 156.147C276.185 148.913 257.133 141.769 238.778 144.859C310.452 179.535 291.21 298.947 191.893 294.438C183.048 294.09 174.308 292.458 165.964 289.599C163.99 288.881 162.038 288.109 160.111 287.283C158.986 286.787 157.863 286.286 156.752 285.73C132.416 273.559 112.322 250.557 109.812 222.625C109.812 222.625 119.01 189.456 175.675 189.456C181.801 189.456 199.313 172.915 199.638 168.117C199.563 166.55 164.882 153.2 151.361 140.308C144.136 133.419 140.706 130.099 137.668 127.606C136.02 126.259 134.297 125 132.507 123.835C127.964 108.457 127.771 92.1806 131.947 76.7056C111.477 85.7266 95.5549 99.985 83.9806 112.574H83.8885C75.9882 102.891 76.5463 70.9498 76.9965 64.2808C76.902 63.8667 71.1036 67.1936 70.3433 67.6943C63.3729 72.5099 56.8563 77.9126 50.8694 83.8392C44.057 90.5248 37.8324 97.7485 32.2604 105.435C32.2604 105.445 32.2546 105.455 32.2513 105.465C32.2513 105.455 32.2571 105.446 32.2604 105.435C19.4471 123.009 10.3602 142.866 5.52474 163.859C5.47665 164.072 3.62595 171.927 2.27441 181.631C2.04511 183.14 1.83256 184.652 1.63678 186.165C1.1741 189.083 0.814243 192.264 0.45936 197.212C0.443605 197.404 0.433655 197.593 0.419559 197.784C0.271648 199.921 0.138702 202.06 0.0207305 204.199C0.0207305 204.529 0 204.854 0 205.184C0 311.674 89.2184 398 199.269 398C297.828 398 379.662 328.76 395.684 237.811C396.021 235.343 396.291 232.861 396.589 230.372C400.55 197.304 396.15 162.547 383.664 133.481Z" fill="#ffffff"/>
</svg>
